<svg width="30" height="34" viewBox="0 0 30 34" fill="none" xmlns="http://www.w3.org/2000/svg">
    <path d="M7.5 20C7.5 19.1716 8.17158 18.5 9 18.5C9.82843 18.5 10.5 19.1716 10.5 20C10.5 20.8284 9.82843 21.5 9 21.5C8.17158 21.5 7.5 20.8284 7.5 20Z" fill="white"/>
    <path d="M9 24.5C8.17158 24.5 7.5 25.1716 7.5 26C7.5 26.8284 8.17158 27.5 9 27.5C9.82843 27.5 10.5 26.8284 10.5 26C10.5 25.1716 9.82843 24.5 9 24.5Z" fill="white"/>
    <path d="M13.5 20C13.5 19.1716 14.1716 18.5 15 18.5C15.8284 18.5 16.5 19.1716 16.5 20C16.5 20.8284 15.8284 21.5 15 21.5C14.1716 21.5 13.5 20.8284 13.5 20Z" fill="white"/>
    <path d="M15 24.5C14.1716 24.5 13.5 25.1716 13.5 26C13.5 26.8284 14.1716 27.5 15 27.5C15.8284 27.5 16.5 26.8284 16.5 26C16.5 25.1716 15.8284 24.5 15 24.5Z" fill="white"/>
    <path d="M19.5 20C19.5 19.1716 20.1716 18.5 21 18.5C21.8284 18.5 22.5 19.1716 22.5 20C22.5 20.8284 21.8284 21.5 21 21.5C20.1716 21.5 19.5 20.8284 19.5 20Z" fill="white"/>
    <path d="M21 24.5C20.1716 24.5 19.5 25.1716 19.5 26C19.5 26.8284 20.1716 27.5 21 27.5C21.8284 27.5 22.5 26.8284 22.5 26C22.5 25.1716 21.8284 24.5 21 24.5Z" fill="white"/>
    <path fill-rule="evenodd" clip-rule="evenodd" d="M6 2C6 1.17158 6.67158 0.5 7.5 0.5C8.32842 0.5 9 1.17158 9 2V3.5H21V2C21 1.17158 21.6716 0.5 22.5 0.5C23.3284 0.5 24 1.17158 24 2V3.5H25.5C27.9853 3.5 30 5.51473 30 8V29C30 31.4853 27.9853 33.5 25.5 33.5H4.5C2.01472 33.5 0 31.4853 0 29V8C0 5.51473 2.01472 3.5 4.5 3.5H6V2ZM21 6.5V8C21 8.82842 21.6716 9.5 22.5 9.5C23.3284 9.5 24 8.82842 24 8V6.5H25.5C26.3284 6.5 27 7.17158 27 8V12.5H3V8C3 7.17158 3.67158 6.5 4.5 6.5H6V8C6 8.82842 6.67158 9.5 7.5 9.5C8.32842 9.5 9 8.82842 9 8V6.5H21ZM3 15.5V29C3 29.8284 3.67158 30.5 4.5 30.5H25.5C26.3284 30.5 27 29.8284 27 29V15.5H3Z" fill="white"/>
</svg>
