<svg width="28" height="28" viewBox="0 0 28 28" fill="none" xmlns="http://www.w3.org/2000/svg">
    <path d="M3.5 27.5C2.675 27.5 1.96876 27.2063 1.38125 26.6188C0.793745 26.0312 0.5 25.325 0.5 24.5V3.5C0.5 2.675 0.793745 1.96876 1.38125 1.38125C1.96876 0.793745 2.675 0.5 3.5 0.5H24.5C25.325 0.5 26.0312 0.793745 26.6188 1.38125C27.2063 1.96876 27.5 2.675 27.5 3.5V24.5C27.5 25.325 27.2063 26.0312 26.6188 26.6188C26.0312 27.2063 25.325 27.5 24.5 27.5H3.5ZM11 24.5V15.5H3.5V24.5H11ZM14 24.5H24.5V15.5H14V24.5ZM3.5 12.5H24.5V3.5H3.5V12.5Z" fill="white"/>
</svg>
