<svg width="36" height="36" viewBox="0 0 36 36" fill="none" xmlns="http://www.w3.org/2000/svg">
    <path d="M13.9091 11.7L16.3636 14.4L11.4545 19.8L16.3636 25.2L13.9091 27.9L6.54545 19.8L13.9091 11.7ZM22.0909 27.9L19.6364 25.2L24.5455 19.8L19.6364 14.4L22.0909 11.7L29.4545 19.8L22.0909 27.9ZM32.7273 0H3.27273C2.40475 0 1.57232 0.379284 0.95856 1.05442C0.344804 1.72955 0 2.64522 0 3.6V32.4C0 33.3548 0.344804 34.2705 0.95856 34.9456C1.57232 35.6207 2.40475 36 3.27273 36H32.7273C33.5953 36 34.4277 35.6207 35.0414 34.9456C35.6552 34.2705 36 33.3548 36 32.4V3.6C36 2.64522 35.6552 1.72955 35.0414 1.05442C34.4277 0.379284 33.5953 0 32.7273 0ZM32.7273 32.4H3.27273V7.2H32.7273V32.4Z" fill="white"/>
</svg>
