<svg width="30" height="34" viewBox="0 0 30 34" fill="none" xmlns="http://www.w3.org/2000/svg">
    <path d="M21.8866 10.1141C21.2537 9.48142 20.3954 9.12598 19.5005 9.12598C18.6055 9.12598 17.7472 9.48142 17.1143 10.1141L16.5912 10.6361L18.182 12.2269L18.7051 11.7049C18.9173 11.5 19.2014 11.3866 19.4964 11.3891C19.7914 11.3917 20.0735 11.51 20.2821 11.7186C20.4907 11.9272 20.609 12.2093 20.6116 12.5043C20.6142 12.7993 20.5008 13.0835 20.2958 13.2956L16.5912 17.0003L18.182 18.591L21.8866 14.8864C22.5193 14.2535 22.8747 13.3952 22.8747 12.5003C22.8747 11.6053 22.5193 10.747 21.8866 10.1141ZM11.2958 22.2956C11.0837 22.5006 10.7995 22.614 10.5045 22.6114C10.2095 22.6088 9.92737 22.4905 9.71879 22.2819C9.5102 22.0733 9.39189 21.7912 9.38932 21.4962C9.38676 21.2012 9.50015 20.9171 9.70508 20.7049L13.4097 17.0003L11.819 15.4095L8.11433 19.1141C7.79199 19.4255 7.53487 19.7979 7.35799 20.2096C7.18111 20.6214 7.08801 21.0643 7.08411 21.5124C7.08022 21.9605 7.16561 22.4049 7.33531 22.8197C7.50501 23.2345 7.75561 23.6113 8.0725 23.9282C8.38939 24.2451 8.76621 24.4957 9.18099 24.6654C9.59576 24.8351 10.0402 24.9205 10.4883 24.9166C10.9364 24.9127 11.3793 24.8196 11.7911 24.6427C12.2028 24.4658 12.5753 24.2087 12.8866 23.8864L13.4097 23.3644L11.819 21.7736L11.2958 22.2956ZM12.8866 10.1153C12.2475 9.51537 11.4 9.18767 10.5236 9.20149C9.64717 9.2153 8.81049 9.56956 8.19061 10.1893C7.57072 10.809 7.21627 11.6456 7.20224 12.5221C7.18822 13.3985 7.51572 14.246 8.11546 14.8853L8.63746 15.4084L10.2282 13.8176L9.70621 13.2945C9.50128 13.0823 9.38789 12.7982 9.39045 12.5032C9.39301 12.2082 9.51133 11.926 9.71991 11.7175C9.9285 11.5089 10.2107 11.3906 10.5056 11.388C10.8006 11.3854 11.0848 11.4988 11.297 11.7038L15.0005 15.4095L16.5912 13.8188L12.8866 10.1153Z"
          fill="white"/>
    <path d="M21.887 19.1139L21.365 18.5908L19.7743 20.1816L20.2963 20.7047C20.5012 20.9169 20.6146 21.2011 20.612 21.496C20.6095 21.791 20.4912 22.0732 20.2826 22.2817C20.074 22.4903 19.7918 22.6086 19.4969 22.6112C19.2019 22.6138 18.9177 22.5004 18.7055 22.2954L15.0009 18.5908L13.4102 20.1816L17.1148 23.8862C17.7513 24.501 18.6038 24.8412 19.4888 24.8335C20.3737 24.8258 21.2202 24.4708 21.8459 23.8451C22.4717 23.2193 22.8266 22.3728 22.8343 21.4879C22.842 20.603 22.5018 19.7505 21.887 19.1139Z"
          fill="white"/>
    <path d="M15 33.8753C14.8008 33.8755 14.6051 33.8227 14.433 33.7223L0.933 25.8473C0.76315 25.7482 0.622248 25.6063 0.52434 25.4358C0.426433 25.2652 0.374942 25.072 0.375 24.8753V9.12533C0.374942 8.92868 0.426433 8.73545 0.52434 8.5649C0.622248 8.39435 0.76315 8.25245 0.933 8.15333L14.433 0.278333C14.6051 0.177915 14.8008 0.125 15 0.125C15.1992 0.125 15.3949 0.177915 15.567 0.278333L29.067 8.15333L27.933 10.0973L15 2.55308L2.625 9.77108V24.2296L15 31.4487L27.375 24.2296V15.8753H29.625V24.8753C29.6251 25.072 29.5736 25.2652 29.4757 25.4358C29.3778 25.6063 29.2368 25.7482 29.067 25.8473L15.567 33.7223C15.3949 33.8227 15.1992 33.8755 15 33.8753Z"
          fill="white"/>
</svg>
