<svg width="41" height="41" viewBox="0 0 41 41" fill="none" xmlns="http://www.w3.org/2000/svg">
    <path d="M10.5 3.05078H8C5.23858 3.05078 3 5.28936 3 8.05078V10.5508" stroke="#16181D" stroke-width="2.5" stroke-linecap="square"/>
    <path d="M10.5 28.0508H8C5.23858 28.0508 3 25.8122 3 23.0508V20.5508" stroke="#16181D" stroke-width="2.5" stroke-linecap="square"/>
    <path d="M20.5 3.05078H23C25.7614 3.05078 28 5.28936 28 8.05078V10.5508" stroke="#16181D" stroke-width="2.5" stroke-linecap="square"/>
    <path d="M18 24.3008H35.5C37.5711 24.3008 39.25 25.9797 39.25 28.0508V29.9747V35.5508C39.25 37.6219 37.5711 39.3008 35.5 39.3008H26.4897H18C15.9289 39.3008 14.25 37.6219 14.25 35.5508V28.0508C14.25 25.9797 15.9289 24.3008 18 24.3008Z" fill="white" stroke="#16181D" stroke-width="2.5" stroke-linecap="square"/>
    <path d="M20.5 30.5508H28V33.0508H20.5V30.5508Z" fill="#16181D"/>
    <path d="M30.5 30.5508H33V33.0508H30.5V30.5508Z" fill="#16181D"/>
    <path d="M21.7247 15.5436L11.4551 9.30078L13.3212 21.0084L15.8176 17.802L18.6948 22.0589L20.6191 20.8073L17.742 16.5514L21.7247 15.5436Z" fill="#16181D"/>
</svg>
