<svg width="63" height="67" viewBox="0 0 63 67" fill="none" xmlns="http://www.w3.org/2000/svg">
    <path opacity="0.5" d="M26.2212 43.021C33.8996 48.7513 44.6626 47.3154 50.261 39.8137C55.8594 32.3121 54.1732 21.5855 46.4948 15.8552C38.8164 10.1248 28.0534 11.5608 22.455 19.0624C16.8566 26.5641 18.5428 37.2907 26.2212 43.021Z" fill="#F5F5F5"/>
    <path opacity="0.25" d="M25.3379 26.2495C29.7256 29.5239 35.9839 28.5586 39.3163 24.0934C42.6487 19.6281 41.7932 13.3538 37.4055 10.0793C33.0179 6.80488 26.7595 7.77017 23.4271 12.2355C20.0947 16.7007 20.9503 22.975 25.3379 26.2495Z" fill="#D7001D"/>
    <path opacity="0.5" d="M30.015 44.8447C35.1339 48.6649 42.2012 47.8524 45.8001 43.03C49.3991 38.2075 48.1669 31.2012 43.048 27.381C37.929 23.5608 30.8617 24.3733 27.2628 29.1957C23.6638 34.0182 24.896 41.0245 30.015 44.8447Z" fill="#D7001D"/>
    <path opacity="0.5" d="M33.8484 37.6352C40.2471 42.4104 49.2162 41.2138 53.8816 34.9625C58.5469 28.7111 57.1418 19.7722 50.7431 14.997C44.3444 10.2217 35.3752 11.4183 30.7099 17.6697C26.0446 23.9211 27.4497 32.8599 33.8484 37.6352Z" fill="#D7001D"/>
    <path fill-rule="evenodd" clip-rule="evenodd" d="M28.5003 28.1562C22.612 28.1562 20.0212 30.8872 20.0212 37.0938C20.0212 30.8872 17.4303 28.1562 11.542 28.1562C17.4303 28.1562 20.0212 25.4253 20.0212 19.2188C20.0212 25.4253 22.612 28.1562 28.5003 28.1562Z" stroke="black" stroke-width="1.875"/>
    <path fill-rule="evenodd" clip-rule="evenodd" d="M45.4587 41.9688C36.8938 41.9688 33.1253 45.9409 33.1253 54.9688C33.1253 45.9409 29.3569 41.9688 20.792 41.9688C29.3569 41.9688 33.1253 37.9966 33.1253 28.9688C33.1253 37.9966 36.8938 41.9688 45.4587 41.9688Z" stroke="black" stroke-width="1.875"/>
</svg>
