<svg width="697" height="719" viewBox="0 0 697 719" fill="none" xmlns="http://www.w3.org/2000/svg">
    <path d="M244.546 -8.4732C239.771 -6.67115 235.502 -2.16451 233.722 2.92451C233.113 4.72656 232.96 21.7438 232.757 119.286L232.504 233.525L123.239 233.789C8.33489 234.053 12.1465 234.002 9.60545 236.23C9.19887 236.651 8.58904 236.971 8.33498 236.971C7.42021 236.971 4.21853 240.469 2.79552 242.961C-0.10123 248.21 0.000437375 244.285 0.000437375 354.922C0.000437375 464.019 -0.0503547 461.474 2.4906 466.246C3.76116 468.631 8.03006 473.401 8.89395 473.401C9.19887 473.401 9.70718 473.667 10.0628 474.039C10.3678 474.355 12.1973 475.098 14.0776 475.629C17.3301 476.529 23.3268 476.583 124.51 476.583C183.36 476.583 231.791 476.583 232.146 476.583C232.604 476.583 232.757 499.431 232.757 589.073C232.757 710.523 232.604 703.582 235.247 709.246C236.264 711.42 240.532 715.609 243.532 717.304L245.717 718.58H348.373C445.135 718.58 451.131 718.531 452.758 717.623C453.724 717.144 454.79 716.725 455.146 716.725C456.163 716.725 461.702 710.891 462.617 708.777C463.073 707.77 463.685 705.646 463.989 704.05C464.345 702.205 464.498 662.494 464.498 588.755C464.498 501.974 464.649 476.106 465.107 475.629C465.564 475.151 490.618 474.992 574.828 474.992C683.379 474.992 683.939 474.992 686.124 473.933C690.902 471.599 693.544 469.109 695.527 465.027L697 462.005V232.729V3.45406L695.527 0.432349C693.849 -3.06604 691.461 -5.50435 687.598 -7.67838L684.803 -9.26798L466.023 -9.3737C251.155 -9.48041 247.19 -9.48043 244.546 -8.4732ZM465.158 100.413C465.972 100.624 466.023 104.23 466.023 166.411V232.2H528.734C585.094 232.2 591.548 232.305 592.259 233.047C592.971 233.789 593.072 240.522 593.072 299.207C593.072 353.649 592.971 364.676 592.361 365.205C591.854 365.629 574.727 365.735 528.225 365.683L464.751 365.523L464.649 299.79L464.498 234.055L401.938 233.896C356.707 233.843 339.123 233.632 338.616 233.206C338.056 232.676 337.956 221.279 337.956 166.465C337.956 104.918 338.006 100.254 338.819 100.095C340.09 99.8303 464.091 100.147 465.158 100.413Z"
          fill="#F4F4F4" fill-opacity="0.4"/>
</svg>
