<svg width="112" height="117" viewBox="0 0 112 117" fill="none" xmlns="http://www.w3.org/2000/svg">
    <path d="M39.2958 0.152113C38.5285 0.441728 37.8425 1.16601 37.5566 1.98389C37.4586 2.2735 37.434 5.00841 37.4015 20.6848L37.3607 39.0447L19.8032 39.0871C1.33932 39.1296 1.9518 39.1213 1.54349 39.4793C1.47815 39.5471 1.38016 39.5986 1.33934 39.5986C1.19234 39.5986 0.677871 40.1607 0.449209 40.5612C-0.0162665 41.4047 7.02811e-05 40.774 7.02811e-05 58.5548C7.02811e-05 76.0883 -0.00809143 75.6793 0.400212 76.4462C0.604375 76.8296 1.29034 77.5962 1.42916 77.5962C1.47815 77.5962 1.55983 77.639 1.61698 77.6987C1.66598 77.7495 1.95997 77.869 2.2621 77.9542C2.78476 78.0989 3.74836 78.1076 20.0074 78.1076C29.4639 78.1076 37.2462 78.1076 37.3033 78.1076C37.3769 78.1076 37.4015 81.7795 37.4015 96.1864C37.4015 115.705 37.3769 114.589 37.8016 115.5C37.9649 115.849 38.6507 116.522 39.1328 116.795L39.4839 117H55.9796C71.5282 117 72.4917 116.992 72.753 116.846C72.9083 116.769 73.0795 116.702 73.1368 116.702C73.3003 116.702 74.1902 115.764 74.3374 115.424C74.4106 115.263 74.5089 114.921 74.5578 114.665C74.615 114.368 74.6396 107.986 74.6396 96.1352C74.6396 82.1883 74.6639 78.0308 74.7374 77.9542C74.8109 77.8774 78.8368 77.8518 92.3684 77.8518C109.811 77.8518 109.901 77.8518 110.252 77.6816C111.02 77.3066 111.445 76.9063 111.763 76.2504L112 75.7647V38.9168V2.06899L111.763 1.58336C111.494 1.02112 111.11 0.629249 110.489 0.279852L110.04 0.0243795L74.8846 0.00738881C40.3578 -0.0097605 39.7206 -0.00976419 39.2958 0.152113ZM74.7457 17.6516C74.8764 17.6856 74.8846 18.2652 74.8846 28.2586V38.8317H84.9615C94.0179 38.8317 95.055 38.8487 95.1694 38.9679C95.2837 39.0871 95.3 40.1692 95.3 49.6006C95.3 58.3503 95.2837 60.1225 95.1857 60.2076C95.1042 60.2757 92.3521 60.2927 84.8798 60.2843L74.6802 60.2587L74.6639 49.6944L74.6396 39.1298L64.5868 39.1043C57.3188 39.0958 54.4933 39.0618 54.4118 38.9934C54.3217 38.9083 54.3057 37.0765 54.3057 28.2672C54.3057 18.3757 54.3138 17.6261 54.4444 17.6005C54.6485 17.558 74.5741 17.609 74.7457 17.6516Z" fill="#D7001D"/>
</svg>
