<svg width="41" height="42" viewBox="0 0 41 42" fill="none" xmlns="http://www.w3.org/2000/svg">
    <path opacity="0.25" d="M28.6412 17.6656C31.496 13.1581 30.3309 7.29996 26.0389 4.5811C21.7469 1.86224 15.9534 3.31228 13.0986 7.81982C10.2439 12.3274 11.409 18.1855 15.701 20.9043C19.993 23.6232 25.7865 22.1732 28.6412 17.6656Z" fill="#D7001D" fill-opacity="0.59"/>
    <path opacity="0.5" d="M26.95 14.8337C28.7068 12.0599 27.765 8.31244 24.8465 6.46363C21.9279 4.61482 18.1379 5.36471 16.3811 8.13859C14.6243 10.9125 15.5661 14.6599 18.4847 16.5087C21.4032 18.3575 25.1933 17.6076 26.95 14.8337Z" fill="#D7001D" fill-opacity="0.59"/>
    <path opacity="0.5" d="M38.1909 24.5937C41.7044 19.0459 40.0991 11.7274 34.6054 8.2473C29.1117 4.76716 21.8099 6.44329 18.2964 11.9911C14.7828 17.5388 16.3881 24.8573 21.8818 28.3375C27.3756 31.8176 34.6773 30.1415 38.1909 24.5937Z" fill="#D7001D"/>
    <path opacity="0.5" d="M31.3553 31.2596C35.4178 24.845 33.7009 16.4711 27.5205 12.556C21.3401 8.6409 13.0365 10.6671 8.97399 17.0817C4.91147 23.4963 6.62841 31.8701 12.8088 35.7853C18.9892 39.7004 27.2928 37.6742 31.3553 31.2596Z" fill="#D7001D"/>
    <path d="M10.75 13.375L15.75 10.25L19.5 11.5L23.25 10.25L28.25 13.375V16.5L30.75 18.375V23.375L28.25 25.25V29.625L23.25 32.75L19.5 31.5L15.75 32.75L10.75 29.625V25.25L8.25 23.375V18.375L10.75 16.5V13.375Z" stroke="#0A0A0A" stroke-width="2.20588" stroke-linecap="square"/>
    <path d="M19.5 12.125V16.5L23.25 20.25M19.5 30.875V26.5L15.75 22.75" stroke="#0A0A0A" stroke-width="2.20588" stroke-linecap="square"/>
    <path d="M15.752 24C16.4423 24 17.002 23.4404 17.002 22.75C17.002 22.0597 16.4423 21.5 15.752 21.5C15.0616 21.5 14.502 22.0597 14.502 22.75C14.502 23.4404 15.0616 24 15.752 24Z" stroke="#0A0A0A" stroke-width="2.20588"/>
    <path d="M23.252 21.5001C23.9423 21.5001 24.502 20.9404 24.502 20.25C24.502 19.5597 23.9423 19 23.252 19C22.5616 19 22.002 19.5597 22.002 20.25C22.002 20.9404 22.5616 21.5001 23.252 21.5001Z" stroke="#0A0A0A" stroke-width="2.20588"/>
</svg>
