<svg width="47" height="48" viewBox="0 0 47 48" fill="none" xmlns="http://www.w3.org/2000/svg">
    <path opacity="0.5" d="M20.6525 37.2192C30.2335 37.2192 38.0004 29.6311 38.0004 20.2707C38.0004 10.9103 30.2335 3.32227 20.6525 3.32227C11.0716 3.32227 3.30469 10.9103 3.30469 20.2707C3.30469 29.6311 11.0716 37.2192 20.6525 37.2192Z" fill="#F5F5F5"/>
    <path opacity="0.25" d="M9.91305 24.3056C15.3879 24.3056 19.8261 19.789 19.8261 14.2173C19.8261 8.64559 15.3879 4.12891 9.91305 4.12891C4.43824 4.12891 0 8.64559 0 14.2173C0 19.789 4.43824 24.3056 9.91305 24.3056Z" fill="#D7001D"/>
    <path opacity="0.5" d="M24.783 36.412C31.1703 36.412 36.3482 31.5339 36.3482 25.5165C36.3482 19.4992 31.1703 14.6211 24.783 14.6211C18.3957 14.6211 13.2178 19.4992 13.2178 25.5165C13.2178 31.5339 18.3957 36.412 24.783 36.412Z" fill="#D7001D"/>
    <path opacity="0.5" d="M23.5435 28.3412C31.5276 28.3412 38 22.0178 38 14.2175C38 6.41714 31.5276 0.09375 23.5435 0.09375C15.5593 0.09375 9.08691 6.41714 9.08691 14.2175C9.08691 22.0178 15.5593 28.3412 23.5435 28.3412Z" fill="#D7001D"/>
    <path d="M24.8334 38.9688H31.1666M18.5 11.3438H37.5V43.8438H18.5V11.3438Z" stroke="#0A0A0A" stroke-width="2" stroke-linecap="square"/>
</svg>
