<svg width="55" height="49" viewBox="0 0 55 49" fill="none" xmlns="http://www.w3.org/2000/svg">
    <path opacity="0.25" d="M26.0321 44.3778C34.1517 42.2476 39.045 34.0699 36.9618 26.1124C34.8785 18.1548 26.6075 13.4308 18.4879 15.561C10.3683 17.6911 5.47497 25.8688 7.55824 33.8264C9.64152 41.7839 17.9125 46.508 26.0321 44.3778Z" fill="#F5F5F5"/>
    <path opacity="0.5" d="M22.4578 33.9698C29.2607 32.1851 33.3534 25.306 31.599 18.6049C29.8447 11.9038 22.9077 7.9183 16.1048 9.70303C9.30194 11.4878 5.20927 18.3668 6.96362 25.068C8.71797 31.7691 15.655 35.7546 22.4578 33.9698Z" fill="#D7001D"/>
    <path opacity="0.5" d="M34.7778 17.7706C37.8501 16.9646 39.7185 13.9346 38.9509 11.0028C38.1834 8.0711 35.0706 6.34787 31.9984 7.15388C28.9261 7.95988 27.0577 10.9899 27.8253 13.9216C28.5928 16.8534 31.7056 18.5766 34.7778 17.7706Z" fill="#F5F5F5"/>
    <path opacity="0.5" d="M35.3699 41.1173C42.1728 39.3326 46.2655 32.4535 44.5111 25.7523C42.7568 19.0512 35.8198 15.0658 29.0169 16.8505C22.2141 18.6352 18.1214 25.5143 19.8757 32.2154C21.6301 38.9166 28.5671 42.902 35.3699 41.1173Z" fill="#D7001D"/>
    <g clip-path="url(#clip0_0_1)">
        <mask id="mask0_0_1" style="mask-type:luminance" maskUnits="userSpaceOnUse" x="12" y="6" width="31" height="31">
            <path d="M42.5 6.59375H12.5V36.5938H42.5V6.59375Z" fill="white"/>
        </mask>
        <g mask="url(#mask0_0_1)">
            <path d="M39.0625 21.9062V12.5312H15.9375V31.9062H27.8125M40 28.036L31.25 25.3438L33.9422 34.0938L35.9615 30.0552L40 28.036Z" stroke="black" stroke-width="1.875" stroke-linecap="square"/>
            <path d="M20.7214 16.2861C21.1939 16.3344 21.5625 16.7335 21.5625 17.2188C21.5625 17.7365 21.1428 18.1562 20.625 18.1562C20.1072 18.1562 19.6875 17.7365 19.6875 17.2188C19.6875 16.701 20.1072 16.2812 20.625 16.2812L20.7214 16.2861ZM25.0964 16.2861C25.5689 16.3344 25.9375 16.7335 25.9375 17.2188C25.9375 17.7365 25.5177 18.1562 25 18.1562C24.4822 18.1562 24.0625 17.7365 24.0625 17.2188C24.0625 16.701 24.4822 16.2812 25 16.2812L25.0964 16.2861ZM29.375 16.2812C29.8927 16.2812 30.3125 16.701 30.3125 17.2188C30.3125 17.7365 29.8927 18.1562 29.375 18.1562C28.8573 18.1562 28.4375 17.7365 28.4375 17.2188C28.4375 16.701 28.8573 16.2812 29.375 16.2812Z" fill="black" stroke="black" stroke-width="0.625" stroke-linecap="square"/>
        </g>
    </g>
    <defs>
        <clipPath id="clip0_0_1">
            <rect width="30" height="30" fill="white" transform="translate(12.5 6.59375)"/>
        </clipPath>
    </defs>
</svg>
