<svg width="32" height="32" viewBox="0 0 32 32" fill="none" xmlns="http://www.w3.org/2000/svg">
    <path fill-rule="evenodd" clip-rule="evenodd" d="M12.8005 3C12.1787 2.99987 11.5629 3.12221 10.9884 3.36005C10.4139 3.59788 9.89183 3.94655 9.45206 4.38614C9.01228 4.82574 8.66339 5.34764 8.42531 5.92207C8.18724 6.4965 8.06463 7.11219 8.0645 7.734C8.06503 8.98963 8.56427 10.1936 9.45241 11.0812C10.3406 11.9688 11.5449 12.4673 12.8005 12.467C13.4223 12.4673 14.0381 12.345 14.6127 12.1073C15.1872 11.8696 15.7094 11.5211 16.1492 11.0816C16.5891 10.6421 16.9381 10.1202 17.1763 9.54585C17.4145 8.97148 17.5372 8.35581 17.5375 7.734C17.5374 7.11202 17.4147 6.49617 17.1765 5.92161C16.9383 5.34705 16.5892 4.82505 16.1492 4.38543C15.7092 3.94582 15.187 3.59719 14.6122 3.35947C14.0374 3.12176 13.4225 2.99961 12.8005 3ZM6.0635 7.734C6.06403 5.94785 6.77395 4.23503 8.03714 2.97222C9.30032 1.70941 11.0133 1 12.7995 1C13.6841 0.999738 14.5601 1.17371 15.3774 1.51198C16.1948 1.85026 16.9375 2.3462 17.5632 2.97151C18.1888 3.59682 18.6852 4.33925 19.024 5.1564C19.3627 5.97355 19.5372 6.84942 19.5375 7.734C19.5367 9.52033 18.8264 11.2332 17.5628 12.4958C16.2992 13.7585 14.5858 14.4675 12.7995 14.467C11.0133 14.4673 9.30022 13.7581 8.03684 12.4955C6.77347 11.2329 6.0643 9.52015 6.0635 7.734Z" fill="white"/>
    <path fill-rule="evenodd" clip-rule="evenodd" d="M18.325 16.3371C16.7451 15.1126 14.8019 14.4499 12.803 14.4541H12.802C10.7026 14.4556 8.66851 15.1837 7.04507 16.5148C5.42162 17.8458 4.30894 19.6978 3.896 21.7561V21.7581L2.962 26.3851L1 25.9891L1.934 21.3641C2.43612 18.8523 3.7931 16.5921 5.774 14.9681C7.75537 13.3438 10.2379 12.4555 12.8 12.4541C15.245 12.4491 17.62 13.2591 19.552 14.7571L18.325 16.3371Z" fill="white"/>
    <path fill-rule="evenodd" clip-rule="evenodd" d="M22.354 15.7197C21.4817 15.7195 20.618 15.891 19.812 16.2246C19.0061 16.5581 18.2737 17.0471 17.6568 17.6637C17.0398 18.2803 16.5504 19.0124 16.2163 19.8181C15.8823 20.6238 15.7102 21.4875 15.71 22.3597C15.7102 23.232 15.8823 24.0956 16.2163 24.9014C16.5504 25.7071 17.0398 26.4392 17.6568 27.0557C18.2737 27.6723 19.0061 28.1613 19.812 28.4949C20.618 28.8284 21.4817 29 22.354 28.9997C23.2264 29.0003 24.0904 28.8289 24.8965 28.4955C25.7027 28.162 26.4353 27.6731 27.0525 27.0565C27.6696 26.4398 28.1593 25.7077 28.4934 24.9018C28.8276 24.0959 28.9997 23.2321 29 22.3597C28.9997 21.4874 28.8276 20.6237 28.4935 19.8179C28.1594 19.0121 27.6699 18.28 27.0528 17.6634C26.4358 17.0468 25.7033 16.5578 24.8972 16.2243C24.0912 15.8908 23.2263 15.7193 22.354 15.7197ZM13.709 22.3597C13.709 17.5887 17.579 13.7197 22.354 13.7197C27.129 13.7197 31 17.5877 31 22.3597C31 27.1317 27.13 30.9997 22.354 30.9997C17.579 30.9997 13.709 27.1317 13.709 22.3597Z" fill="white"/>
    <path fill-rule="evenodd" clip-rule="evenodd" d="M21.7247 22.8554L25.4747 19.1074L26.8907 20.5214L21.7287 25.6794L18.4727 22.4434L19.8847 21.0254L21.7247 22.8554Z" fill="white"/>
</svg>
