<svg width="30" height="27" viewBox="0 0 30 27" fill="none" xmlns="http://www.w3.org/2000/svg">
    <path fill-rule="evenodd" clip-rule="evenodd" d="M24.047 2.97002L27.565 9.00002H20.53L24.047 2.97002ZM22.32 1.96002C23.091 0.637023 25.003 0.637023 25.775 1.96002L29.293 7.99102C30.07 9.32502 29.109 11 27.565 11H20.53C18.987 11 18.025 9.32502 18.803 7.99202L22.321 1.96202L22.32 1.96002ZM18 3.00002H4C2.93913 3.00002 1.92172 3.42145 1.17157 4.1716C0.421427 4.92174 0 5.93916 0 7.00002L0 23C0 24.0609 0.421427 25.0783 1.17157 25.8284C1.92172 26.5786 2.93913 27 4 27H25C26.0609 27 27.0783 26.5786 27.8284 25.8284C28.5786 25.0783 29 24.0609 29 23V13H27V23C27 23.5305 26.7893 24.0392 26.4142 24.4142C26.0391 24.7893 25.5304 25 25 25H4C3.46957 25 2.96086 24.7893 2.58579 24.4142C2.21071 24.0392 2 23.5305 2 23V7.00002C2 6.46959 2.21071 5.96088 2.58579 5.58581C2.96086 5.21074 3.46957 5.00002 4 5.00002H18V3.00002ZM13.187 11.958C13.1863 12.3473 13.109 12.7326 12.9595 13.0919C12.8099 13.4513 12.591 13.7777 12.3153 14.0524C12.0396 14.3272 11.7125 14.545 11.3527 14.6933C10.9928 14.8417 10.6072 14.9177 10.218 14.917C9.43207 14.9181 8.6779 14.607 8.12132 14.0521C7.56474 13.4972 7.25133 12.744 7.25 11.958C7.25159 11.1723 7.56512 10.4193 8.12167 9.86462C8.67822 9.30995 9.43224 8.99896 10.218 9.00002C11.0039 8.9987 11.7582 9.30956 12.315 9.86427C12.8717 10.419 13.1854 11.1721 13.187 11.958ZM4.024 20.5C3.997 20.775 4.224 21 4.5 21H15.499C15.775 21 16.002 20.775 15.976 20.5C15.733 17.976 13.668 16.004 11.158 16.004H8.842C6.331 16.004 4.266 17.976 4.024 20.5ZM24.047 15H18.047V17H24.047V15ZM18.047 19H21.998V21H18.047V19Z" fill="white"/>
</svg>
