<svg width="32" height="32" viewBox="0 0 32 32" fill="none" xmlns="http://www.w3.org/2000/svg">
    <path fill-rule="evenodd" clip-rule="evenodd" d="M22.7853 21.3636C20.8397 23.716 17.8985 25.2148 14.6075 25.2148C8.74911 25.2148 4 20.4657 4 14.6075C4 8.74911 8.74911 4 14.6075 4C17.9181 4 20.8745 5.51668 22.8197 7.89313L24.2399 6.47299C21.9272 3.73721 18.4703 2 14.6075 2C7.64453 2 2 7.64453 2 14.6075C2 21.5703 7.64453 27.2148 14.6075 27.2148C18.4508 27.2148 21.8924 25.4951 24.2048 22.7832L22.7853 21.3636Z" fill="white"/>
    <path d="M29.9965 28.5717L23.3496 21.9248L21.9354 23.339L28.5823 29.9859L29.9965 28.5717Z" fill="white"/>
    <path fill-rule="evenodd" clip-rule="evenodd" d="M12.5965 14.5429C13.8573 14.5429 14.8795 13.5243 14.8795 12.2676C14.8795 11.0109 13.8573 9.99219 12.5965 9.99219C11.3356 9.99219 10.3135 11.0109 10.3135 12.2676C10.3135 13.5243 11.3356 14.5429 12.5965 14.5429ZM8.00162 18.8368C7.98128 19.0483 8.15552 19.2208 8.3679 19.2208H16.8271C17.0395 19.2208 17.214 19.0483 17.1937 18.8368C17.0069 16.8953 15.4192 15.3789 13.4883 15.3789H11.707C9.77607 15.3789 8.18838 16.8953 8.00162 18.8368Z" fill="white"/>
    <path d="M18.7051 11.2197H27.9415V13.2197H18.7051V11.2197Z" fill="white"/>
    <path d="M18.7051 15.2197H23.9853V17.2197H18.7051V15.2197Z" fill="white"/>
</svg>
