<svg width="26" height="29" viewBox="0 0 26 29" fill="none" xmlns="http://www.w3.org/2000/svg">
    <path fill-rule="evenodd" clip-rule="evenodd" d="M4.55094 2.08797H19.3151C20.3754 2.08797 21.2351 2.94758 21.2351 4.00797V14.5822H23.1551V4.00797C23.1551 1.88719 21.4359 0.167969 19.3151 0.167969H4.55094C2.43017 0.167969 0.710938 1.88719 0.710938 4.00797V22.44C0.710938 24.5608 2.43017 26.28 4.55094 26.28H12.7547V24.36H4.55094C3.49055 24.36 2.63094 23.5003 2.63094 22.44V4.00797C2.63094 2.94758 3.49055 2.08797 4.55094 2.08797ZM19.4595 5.35872H4.542V7.27872H19.4595V5.35872ZM4.542 9.19872H19.4595V11.1187H4.542V9.19872ZM4.542 13.0312H19.4595V14.9512H4.542V13.0312ZM12.7459 16.8868H4.542V18.8068H12.7459V16.8868ZM25.4399 17.7452L19.8783 16.2345L14.3041 17.673V21.856C14.295 23.4718 14.8113 25.0475 15.7754 26.328C16.7405 27.61 18.0998 28.523 19.6374 28.9105L19.872 28.9695L20.1066 28.9105C21.6442 28.523 23.0035 27.61 23.9686 26.328C24.9327 25.0475 25.449 23.4718 25.4399 21.856V17.7452ZM16.2241 21.8646V19.1604L19.8657 18.2206L23.5199 19.2132V21.8589V21.8646C23.5272 23.067 23.1427 24.2329 22.4347 25.1733C21.7778 26.0459 20.8797 26.6754 19.872 26.9833C18.8643 26.6754 17.9662 26.0459 17.3093 25.1733C16.6013 24.2329 16.2168 23.067 16.2241 21.8646Z" fill="white"/>
</svg>
