<svg width="31" height="31" viewBox="0 0 31 31" fill="none" xmlns="http://www.w3.org/2000/svg">
    <path fill-rule="evenodd" clip-rule="evenodd" d="M12.3005 2.58984C11.6787 2.58971 11.0629 2.71206 10.4884 2.94989C9.91389 3.18773 9.39183 3.53639 8.95206 3.97599C8.51228 4.41558 8.16339 4.93749 7.92531 5.51191C7.68724 6.08634 7.56463 6.70204 7.5645 7.32384C7.56503 8.57947 8.06427 9.78347 8.95241 10.6711C9.84055 11.5586 11.0449 12.0571 12.3005 12.0568C12.9223 12.0571 13.5381 11.9349 14.1127 11.6972C14.6872 11.4595 15.2094 11.1109 15.6492 10.6714C16.0891 10.2319 16.4381 9.71007 16.6763 9.1357C16.9145 8.56132 17.0372 7.94565 17.0375 7.32384C17.0374 6.70187 16.9147 6.08601 16.6765 5.51145C16.4383 4.9369 16.0892 4.4149 15.6492 3.97528C15.2092 3.53566 14.687 3.18703 14.1122 2.94932C13.5374 2.7116 12.9225 2.58945 12.3005 2.58984ZM5.5635 7.32384C5.56403 5.53769 6.27395 3.82488 7.53714 2.56207C8.80032 1.29925 10.5133 0.589844 12.2995 0.589844C13.1841 0.589581 14.0601 0.763553 14.8774 1.10183C15.6948 1.4401 16.4375 1.93605 17.0632 2.56136C17.6888 3.18667 18.1852 3.92909 18.524 4.74624C18.8627 5.56339 19.0372 6.43926 19.0375 7.32384C19.0367 9.11017 18.3264 10.823 17.0628 12.0857C15.7992 13.3483 14.0858 14.0574 12.2995 14.0568C10.5133 14.0571 8.80022 13.348 7.53684 12.0853C6.27347 10.8227 5.5643 9.11 5.5635 7.32384Z" fill="white"/>
    <path fill-rule="evenodd" clip-rule="evenodd" d="M17.825 15.927C16.2451 14.7024 14.3019 14.0398 12.303 14.044H12.302C10.2026 14.0455 8.16851 14.7735 6.54507 16.1046C4.92162 17.4357 3.80894 19.2876 3.396 21.346V21.348L2.462 25.975L0.5 25.579L1.434 20.954C1.93612 18.4422 3.2931 16.182 5.274 14.558C7.25537 12.9337 9.73794 12.0454 12.3 12.044C14.745 12.039 17.12 12.849 19.052 14.347L17.825 15.927Z" fill="white"/>
    <path fill-rule="evenodd" clip-rule="evenodd" d="M21.8559 15.3096C20.9837 15.3093 20.1199 15.4808 19.314 15.8144C18.5081 16.1479 17.7757 16.637 17.1587 17.2536C16.5418 17.8701 16.0523 18.6022 15.7183 19.4079C15.3843 20.2137 15.2122 21.0773 15.2119 21.9496C15.2122 22.8218 15.3843 23.6855 15.7183 24.4912C16.0523 25.2969 16.5418 26.029 17.1587 26.6456C17.7757 27.2622 18.5081 27.7512 19.314 28.0847C20.1199 28.4183 20.9837 28.5898 21.8559 28.5896C22.7283 28.5901 23.5923 28.4187 24.3985 28.0853C25.2047 27.7519 25.9373 27.2629 26.5544 26.6463C27.1716 26.0297 27.6612 25.2975 27.9954 24.4917C28.3295 23.6858 28.5017 22.822 28.5019 21.9496C28.5017 21.0772 28.3296 20.2135 27.9955 19.4077C27.6614 18.6019 27.1718 17.8698 26.5548 17.2532C25.9377 16.6366 25.2052 16.1476 24.3992 15.8141C23.5931 15.4806 22.7283 15.3092 21.8559 15.3096ZM13.2109 21.9496C13.2109 17.1786 17.0809 13.3096 21.8559 13.3096C26.6309 13.3096 30.5019 17.1776 30.5019 21.9496C30.5019 26.7216 26.6319 30.5896 21.8559 30.5896C17.0809 30.5896 13.2109 26.7216 13.2109 21.9496Z" fill="white"/>
    <path fill-rule="evenodd" clip-rule="evenodd" d="M21.2247 22.4453L24.9747 18.6973L26.3907 20.1113L21.2287 25.2693L17.9727 22.0333L19.3847 20.6153L21.2247 22.4453Z" fill="white"/>
</svg>
