<svg width="29" height="30" viewBox="0 0 29 30" fill="none" xmlns="http://www.w3.org/2000/svg">
    <path fill-rule="evenodd" clip-rule="evenodd" d="M14.1908 15.8241H14.1988V17.8241H14.1908C12.4931 17.8241 10.8617 17.7407 9.3548 17.5853C9.63594 19.9578 10.2388 22.027 11.0268 23.5973C12.1925 25.9213 13.4285 26.5898 14.1908 26.5898H14.1988V28.5898H14.1908C6.40737 28.5898 0.0976562 22.3218 0.0976562 14.5898C0.0976562 6.85784 6.4068 0.589844 14.1908 0.589844C21.9348 0.589844 28.2199 6.79442 28.2834 14.4727H26.2702C26.2211 9.35213 22.9428 4.99842 18.3611 3.32413C20.0771 5.8527 21.1948 9.90127 21.2137 14.4727H19.1999C19.1845 10.8973 18.4474 7.7607 17.3548 5.58242C16.1897 3.25842 14.9531 2.58984 14.1908 2.58984C13.4285 2.58984 12.1925 3.25899 11.0268 5.58242C9.92223 7.78413 9.18109 10.9658 9.18109 14.5898C9.18109 14.9156 9.1868 15.2384 9.1988 15.5567C10.7222 15.7281 12.4097 15.8241 14.1908 15.8241ZM7.17594 15.2698C7.17023 15.0441 7.16794 14.8178 7.16794 14.5898C7.16794 9.97042 8.29023 5.87384 10.0205 3.32413C5.76966 4.87727 2.64108 8.73727 2.17194 13.3756V13.3773C2.18051 13.399 2.24623 13.5813 2.72394 13.879C3.26108 14.2144 4.10566 14.5533 5.23823 14.8516C5.82566 15.0064 6.47423 15.147 7.17537 15.2693L7.17594 15.2698ZM2.17137 13.3784L2.1708 13.3881H2.17194L2.17137 13.3784ZM2.17823 15.8664C2.66966 20.4773 5.78908 24.3087 10.0205 25.855C8.63994 23.8207 7.64623 20.8013 7.30108 17.3178C6.43319 17.1826 5.57251 17.0045 4.72223 16.7841C3.75309 16.5287 2.88566 16.2241 2.17823 15.8664Z" fill="white"/>
    <path d="M23.2572 25.7861V23.9575H25.0972V21.9575H23.2572V20.1289H21.2435V21.9575H19.4023V23.9575H21.2435V25.7861H23.2572Z" fill="white"/>
    <path fill-rule="evenodd" clip-rule="evenodd" d="M22.2507 29.5928C25.9227 29.5928 28.8998 26.6225 28.8998 22.9585C28.8998 19.2945 25.9227 16.3242 22.2507 16.3242C18.5787 16.3242 15.6016 19.2945 15.6016 22.9585C15.6016 26.6225 18.5787 29.5928 22.2507 29.5928ZM26.8861 22.9585C26.8861 25.5259 24.8027 27.5928 22.2507 27.5928C19.6987 27.5928 17.6153 25.5259 17.6153 22.9585C17.6153 20.3905 19.6987 18.3242 22.2507 18.3242C24.8027 18.3242 26.8861 20.3905 26.8861 22.9585Z" fill="white"/>
</svg>
