<svg width="25" height="31" viewBox="0 0 25 31" fill="none" xmlns="http://www.w3.org/2000/svg">
    <path fill-rule="evenodd" clip-rule="evenodd" d="M16.9013 2.58984H8.10133V2.98984C8.10133 3.52028 8.31205 4.02898 8.68712 4.40406C9.06219 4.77913 9.5709 4.98984 10.1013 4.98984H14.9013C15.4318 4.98984 15.9405 4.77913 16.3155 4.40406C16.6906 4.02898 16.9013 3.52028 16.9013 2.98984V2.58984ZM18.7747 3.98984C18.5527 4.84841 18.0519 5.60894 17.3508 6.15195C16.6497 6.69496 15.7881 6.98969 14.9013 6.98984H10.1013C9.21455 6.98969 8.35294 6.69496 7.65185 6.15195C6.95076 5.60894 6.44992 4.84841 6.228 3.98984H2.5V25.1898C2.5 25.7203 2.71071 26.229 3.08579 26.6041C3.46086 26.9791 3.96957 27.1898 4.5 27.1898H14.1013V29.1898H4.5C3.43913 29.1898 2.42172 28.7684 1.67157 28.0183C0.921427 27.2681 0.5 26.2507 0.5 25.1898V1.98984H6.10133V0.589844H18.9013V1.98984H24.5013V18.7898H22.5013V3.98984H18.7747ZM6.10133 15.9898H12.2147V13.9898H6.1V15.9898H6.10133ZM18.9013 11.9898H6.10133V9.98984H18.9013V11.9898ZM17.568 23.1578V24.4645C17.5681 25.111 17.7248 25.7478 18.0248 26.3204C18.3249 26.8931 18.7592 27.3845 19.2907 27.7525L20.0347 28.2672L20.7773 27.7525C21.309 27.3843 21.7434 26.8927 22.0435 26.3198C22.3435 25.747 22.5001 25.1099 22.5 24.4632V23.1498L20.0373 22.3845L17.568 23.1578ZM15.568 22.0552V24.4632C15.568 25.4332 15.8033 26.3888 16.2535 27.248C16.7038 28.1072 17.3557 28.8444 18.1533 29.3965L19.7507 30.5032C19.8343 30.5611 19.9336 30.5921 20.0353 30.5921C20.1371 30.5921 20.2364 30.5611 20.32 30.5032L21.916 29.3965C22.7134 28.8443 23.365 28.107 23.815 27.2478C24.2651 26.3886 24.5001 25.4331 24.5 24.4632V22.0432C24.4999 21.9363 24.4655 21.8323 24.4019 21.7464C24.3383 21.6605 24.2488 21.5972 24.1467 21.5658L20.184 20.3338C20.0868 20.3034 19.9826 20.3034 19.8853 20.3338L15.9187 21.5765C15.817 21.6083 15.7281 21.6718 15.665 21.7577C15.602 21.8435 15.568 21.9473 15.568 22.0538V22.0552Z" fill="white"/>
</svg>
