<svg width="30" height="31" viewBox="0 0 30 31" fill="none" xmlns="http://www.w3.org/2000/svg">
    <circle cx="15" cy="15.418" r="15" fill="black"/>
    <path d="M30 15.5092C30 7.17253 23.2863 0.417969 15 0.417969C6.71371 0.417969 0 7.17253 0 15.5092C0 23.0549 5.44355 29.3226 12.6411 30.418V19.8906H8.83064V15.5092H12.6411V12.2232C12.6411 8.45042 14.879 6.32061 18.2661 6.32061C19.9597 6.32061 21.6532 6.62487 21.6532 6.62487V10.3368H19.7782C17.9032 10.3368 17.2984 11.493 17.2984 12.7101V15.5092H21.4718L20.8065 19.8906H17.2984V30.418C24.496 29.3226 30 23.0549 30 15.5092Z" fill="white"/>
</svg>
