<svg width="30" height="31" viewBox="0 0 30 31" fill="none" xmlns="http://www.w3.org/2000/svg">
    <circle cx="15" cy="15.418" r="15" fill="white"/>
    <path d="M8.22178 22.4766H11.3059V12.4922H8.22178V22.4766Z" fill="black"/>
    <path d="M7.94141 9.30469C7.94141 10.2891 8.7358 11.0859 9.76384 11.0859C10.7451 11.0859 11.5395 10.2891 11.5395 9.30469C11.5395 8.32031 10.7451 7.47656 9.76384 7.47656C8.7358 7.47656 7.94141 8.32031 7.94141 9.30469Z"
          fill="black"/>
    <path d="M19.8106 22.4766H22.9414V16.9922C22.9414 14.3203 22.3339 12.2109 19.2031 12.2109C17.7078 12.2109 16.6797 13.0547 16.2592 13.8516H16.2124V12.4922H13.2685V22.4766H16.3526V17.5547C16.3526 16.2422 16.5863 14.9766 18.2218 14.9766C19.8106 14.9766 19.8106 16.4766 19.8106 17.6016V22.4766Z"
          fill="black"/>
</svg>
