<svg width="30" height="31" viewBox="0 0 30 31" fill="none" xmlns="http://www.w3.org/2000/svg">
    <circle cx="15" cy="15.418" r="15" fill="white"/>
    <path d="M21.9961 11.9095C22.6854 11.3925 23.3058 10.7721 23.7884 10.0483C23.168 10.324 22.4442 10.5308 21.7204 10.5997C22.4786 10.1517 23.0301 9.46232 23.3058 8.60064C22.6165 9.01425 21.8238 9.32445 21.031 9.49678C20.3417 8.77298 19.4111 8.35938 18.3771 8.35938C16.378 8.35938 14.758 9.97932 14.758 11.9784C14.758 12.2541 14.7925 12.5299 14.8614 12.8056C11.8628 12.6333 9.1744 11.1857 7.38212 9.01425C7.07192 9.53125 6.89959 10.1517 6.89959 10.841C6.89959 12.0818 7.51999 13.1847 8.51953 13.8396C7.93359 13.8051 7.34766 13.6673 6.86512 13.3915V13.426C6.86512 15.1838 8.10593 16.6314 9.76034 16.9761C9.48461 17.045 9.13994 17.114 8.82973 17.114C8.58847 17.114 8.38166 17.0795 8.1404 17.045C8.58847 18.4926 9.93267 19.5267 11.5182 19.5611C10.2773 20.5262 8.72633 21.1121 7.03745 21.1121C6.72725 21.1121 6.45152 21.0777 6.17578 21.0432C7.76126 22.0772 9.65694 22.6631 11.725 22.6631C18.3771 22.6631 21.9961 17.1829 21.9961 12.392C21.9961 12.2197 21.9961 12.0818 21.9961 11.9095Z" fill="black"/>
</svg>
