<svg width="41" height="40" viewBox="0 0 41 40" fill="none" xmlns="http://www.w3.org/2000/svg">
    <path d="M8 1.25H33C35.0711 1.25 36.75 2.92893 36.75 5V9.34483V18.6187C36.75 20.6898 35.0711 22.3687 33 22.3687H20.1687H8C5.92893 22.3687 4.25 20.6898 4.25 18.6187V5C4.25 2.92893 5.92893 1.25 8 1.25Z" fill="" stroke="#16181D" stroke-width="2.5" stroke-linecap="square"/>
    <path d="M10.5 7.5H23V10H10.5V7.5Z" fill="#16181D"/>
    <path d="M10.5 12.5H18V15H10.5V12.5Z" fill="#16181D"/>
    <path d="M28 7.5H30.5V10H28V7.5Z" fill="#16181D"/>
    <path d="M28 12.5H30.5V15H28V12.5Z" fill="#16181D"/>
    <path d="M5.28393 28.2042C5.03505 27.9407 4.81919 27.7034 4.63867 27.5C4.81919 27.2966 5.03505 27.0593 5.28393 26.7958C6.13865 25.891 7.37533 24.6848 8.90015 23.4811C11.9816 21.0486 16.0825 18.75 20.5 18.75C24.9175 18.75 29.0184 21.0486 32.0998 23.4811C33.6247 24.6848 34.8613 25.891 35.7161 26.7958C35.9649 27.0593 36.1808 27.2966 36.3613 27.5C36.1808 27.7034 35.9649 27.9407 35.7161 28.2042C34.8613 29.109 33.6247 30.3152 32.0998 31.5189C29.0184 33.9514 24.9175 36.25 20.5 36.25C16.0825 36.25 11.9816 33.9514 8.90015 31.5189C7.37533 30.3152 6.13865 29.109 5.28393 28.2042Z" fill="white" stroke="#16181D" stroke-width="2.5"/>
    <path d="M29.25 27.5C29.25 32.3325 25.3325 36.25 20.5 36.25C15.6675 36.25 11.75 32.3325 11.75 27.5C11.75 22.6675 15.6675 18.75 20.5 18.75C25.3325 18.75 29.25 22.6675 29.25 27.5Z" stroke="#16181D" stroke-width="2.5"/>
    <path d="M24.372 27.4985C24.372 28.2661 24.1443 29.0165 23.7179 29.6548C23.2914 30.2931 22.6852 30.7906 21.976 31.0843C21.2668 31.3781 20.4864 31.455 19.7335 31.3052C18.9806 31.1555 18.289 30.7858 17.7462 30.243C17.2034 29.7002 16.8337 29.0086 16.684 28.2557C16.5342 27.5028 16.6111 26.7224 16.9048 26.0132C17.1986 25.304 17.6961 24.6978 18.3343 24.2713C18.9726 23.8448 19.723 23.6172 20.4907 23.6172" stroke="#16181D" stroke-width="2.5"/>
</svg>
