<svg width="41" height="40" viewBox="0 0 41 40" fill="none" xmlns="http://www.w3.org/2000/svg">
    <path d="M23 2.45117H34.25C36.3211 2.45117 38 4.1301 38 6.20117V17.4512C38 19.5222 36.3211 21.2012 34.25 21.2012H28.4239H23C20.9289 21.2012 19.25 19.5222 19.25 17.4512V6.20117C19.25 4.1301 20.9289 2.45117 23 2.45117Z" fill="white" stroke="#16181D" stroke-width="2.5" stroke-linecap="square"/>
    <path d="M39.25 15H36.75V17.5H37.9763H39.25V15Z" fill="white"/>
    <path d="M31.125 1.20117V3.70117H33.625V2.47484V1.20117H31.125Z" fill="white"/>
    <path d="M21.0212 15H18V22.5H19.482H21.0212V15Z" fill="white"/>
    <path d="M31.125 19.9512V22.4512H33.625V21.2248V19.9512H31.125Z" fill="white"/>
    <path d="M39.25 7.54883H36.75V10.0488H37.9763H39.25V7.54883Z" fill="white"/>
    <path d="M23 1.20117V3.70117H25.5V2.47484V1.20117H23Z" fill="white"/>
    <path d="M20.5 7.54883H18V10.0488H19.2263H20.5V7.54883Z" fill="white"/>
    <path d="M17.4531 19.3047V22.6208H25.5452V20.9941V19.3047H17.4531Z" fill="white"/>
    <path fill-rule="evenodd" clip-rule="evenodd" d="M28.6273 11.7555C30.0201 11.7555 31.1492 10.6301 31.1492 9.24199C31.1492 7.85383 30.0201 6.72852 28.6273 6.72852C27.2345 6.72852 26.1055 7.85383 26.1055 9.24199C26.1055 10.6301 27.2345 11.7555 28.6273 11.7555ZM23.5487 16.5004C23.5262 16.7339 23.7187 16.9246 23.9533 16.9246H33.2976C33.5321 16.9246 33.725 16.7339 33.7026 16.5004C33.4963 14.3557 31.7424 12.6807 29.6094 12.6807H27.6418C25.5088 12.6807 23.755 14.3557 23.5487 16.5004Z" fill="#16181D"/>
    <path d="M6.75 18.7988H18C20.0711 18.7988 21.75 20.4778 21.75 22.5488V25.9565V33.7988C21.75 35.8699 20.0711 37.5488 18 37.5488H12.1739H6.75C4.67893 37.5488 3 35.8699 3 33.7988V22.5488C3 20.4778 4.67893 18.7988 6.75 18.7988Z" fill="white" stroke="#16181D" stroke-width="2.5" stroke-linecap="square"/>
    <path d="M14.25 6.29883H11.75C8.98858 6.29883 6.75 8.5374 6.75 11.2988V13.7988" stroke="#16181D" stroke-width="2.5" stroke-linecap="square"/>
    <path d="M26.7812 33.6367H29.8904C32.6518 33.6367 34.8903 31.3981 34.8903 28.6367V26.1367" stroke="#16181D" stroke-width="2.5" stroke-linecap="square"/>
    <path fill-rule="evenodd" clip-rule="evenodd" d="M12.3773 28.1031C13.7701 28.1031 14.8992 26.9778 14.8992 25.5896C14.8992 24.2015 13.7701 23.0762 12.3773 23.0762C10.9845 23.0762 9.85547 24.2015 9.85547 25.5896C9.85547 26.9778 10.9845 28.1031 12.3773 28.1031ZM7.29866 32.848C7.2762 33.0816 7.46867 33.2723 7.70326 33.2723H17.0476C17.2821 33.2723 17.475 33.0816 17.4526 32.848C17.2463 30.7034 15.4924 29.0283 13.3594 29.0283H11.3918C9.25878 29.0283 7.50496 30.7034 7.29866 32.848Z" fill="#16181D"/>
</svg>
