<svg width="27" height="20" viewBox="0 0 27 20" fill="none" xmlns="http://www.w3.org/2000/svg">
    <path d="M19.9631 3.11148C17.8101 2.07639 15.658 1.03923 13.5068 0L0 6.50688L2.3111 7.64721L2.11983 7.67863V19.8604H3.25831V8.65954L4.07801 8.51526L4.39678 8.67235V14.8255C4.39678 15.889 10.3237 18.9365 11.5111 19.5369C12.1284 19.8466 12.8079 20.0051 13.4955 19.9999C14.1832 19.9946 14.8602 19.8258 15.473 19.5067C22.6123 15.7715 22.6123 15.0838 22.6123 14.8255V8.67235L27 6.51153C27 6.51153 22.6738 4.41588 19.9631 3.11148ZM21.4739 14.6288C19.3836 16.0509 17.2061 17.3342 14.955 18.4711C14.5005 18.7081 13.9981 18.8337 13.4879 18.8377C12.9776 18.8418 12.4735 18.7242 12.0154 18.4943C9.75612 17.3957 7.58879 16.1095 5.53525 14.6486V9.23204L13.5046 13.1569L21.4739 9.23204V14.6288ZM13.5046 11.8676L6.00885 8.17549L13.3736 6.87807L13.1801 5.72959L4.24308 7.30511L2.64581 6.51851L13.5034 1.28811C14.4427 1.74541 23.2066 5.95882 24.3667 6.51735L13.5046 11.8676Z"
          stroke="black"
          stroke-width="0.5"
          fill="black"/>/>
</svg>
