<svg width="18" height="18" viewBox="0 0 18 18" fill="none" xmlns="http://www.w3.org/2000/svg">
    <path d="M5.25 4H4V6.5H5.25V4Z" fill="black"/>
    <path d="M5.25 7.75H4V10.25H5.25V7.75Z" fill="black"/>
    <path d="M9 4H7.75V6.5H9V4Z" fill="black"/>
    <path d="M9 7.75H7.75V10.25H9V7.75Z" fill="black"/>
    <path d="M5.25 11.5H4V14H5.25V11.5Z" fill="black"/>
    <path d="M9 11.5H7.75V14H9V11.5Z" fill="black"/>
    <path d="M17.75 7.75C17.75 7.41848 17.6183 7.10054 17.3839 6.86612C17.1495 6.6317 16.8315 6.5 16.5 6.5H12.75V1.5C12.75 1.16848 12.6183 0.850537 12.3839 0.616116C12.1495 0.381696 11.8315 0.25 11.5 0.25H1.5C1.16848 0.25 0.850537 0.381696 0.616116 0.616116C0.381696 0.850537 0.25 1.16848 0.25 1.5V17.75H17.75V7.75ZM1.5 1.5H11.5V16.5H1.5V1.5ZM12.75 16.5V7.75H16.5V16.5H12.75Z"
          fill="black"/>
</svg>
