<svg width="12" height="18" viewBox="0 0 12 18" fill="none" xmlns="http://www.w3.org/2000/svg">
    <path d="M9.7045 0.84375H2.29579C1.47659 0.84375 0.8125 1.50784 0.8125 2.32704V15.6688C0.8125 16.4881 1.47659 17.1522 2.29579 17.1522H9.7045C10.5237 17.1522 11.1877 16.4881 11.1877 15.6688V2.32704C11.1877 1.50784 10.5237 0.84375 9.7045 0.84375Z"
          stroke="black" stroke-width="1.39786" stroke-miterlimit="10"/>
    <path d="M7.48317 1.62034H4.51659C4.416 1.62162 4.31629 1.6021 4.22362 1.56301C4.13095 1.52392 4.04736 1.4661 3.97809 1.39319C3.90882 1.32028 3.85536 1.23383 3.82108 1.13928C3.78679 1.04473 3.77241 0.944117 3.77884 0.84375H8.22092C8.22734 0.944117 8.213 1.04473 8.17867 1.13928C8.14442 1.23383 8.09092 1.32028 8.02167 1.39319C7.95242 1.4661 7.86884 1.52392 7.77617 1.56301C7.6835 1.6021 7.58375 1.62162 7.48317 1.62034Z"
          stroke="black" stroke-width="1.39786" stroke-miterlimit="10"/>
    <path fill-rule="evenodd" clip-rule="evenodd"
          d="M5.99994 15.5567C6.34569 15.5567 6.62586 15.2764 6.62586 14.9307C6.62586 14.5849 6.34569 14.3047 5.99994 14.3047C5.65427 14.3047 5.37402 14.5849 5.37402 14.9307C5.37402 15.2764 5.65427 15.5567 5.99994 15.5567Z"
          fill="black"/>
</svg>
