<svg width="23" height="17" viewBox="0 0 23 17" fill="none" xmlns="http://www.w3.org/2000/svg">
    <path d="M7.69226 5.18667C5.55552 6.03507 3.8538 7.55759 2.90443 9.47221C2.76113 9.76113 2.90699 10.0982 3.22942 10.2266C3.31386 10.261 3.40087 10.277 3.48787 10.277C3.73353 10.277 3.9664 10.1509 4.07132 9.93769C4.89275 8.28217 6.36159 6.96601 8.20917 6.23226C8.5316 6.10386 8.67746 5.76679 8.53416 5.47788C8.39341 5.18897 8.01469 5.05827 7.69226 5.18667ZM13.1838 2.69881C13.368 2.42824 13.4806 2.11411 13.4806 1.77475C13.4806 0.793364 12.5927 0 11.5 0C10.4048 0 9.51936 0.795657 9.51936 1.77475C9.51936 2.11411 9.63195 2.43054 9.8162 2.69881C4.27092 3.43027 0.00255893 7.72039 0.00255893 12.8887V14.1292C0.00255893 14.4456 0.289163 14.7025 0.642301 14.7025H22.3603C22.7134 14.7025 23 14.4456 23 14.1292V12.8887C22.9974 7.72039 18.7265 3.43256 13.1838 2.69881ZM21.7205 13.556H1.27948V12.8887C1.27948 7.83963 5.86515 3.73294 11.5 3.73294C17.1348 3.73294 21.7205 7.83963 21.7205 12.8887V13.556ZM22.3577 15.8535H0.639742C0.286604 15.8535 0 16.1103 0 16.4268C0 16.7432 0.286604 17 0.639742 17H22.3577C22.7108 17 22.9974 16.7432 22.9974 16.4268C22.9974 16.1103 22.7108 15.8535 22.3577 15.8535Z"
          fill="black"
          stroke="black"
          stroke-width="0.3"
          />
</svg>
