<svg width="18" height="16" viewBox="0 0 18 16" fill="none" xmlns="http://www.w3.org/2000/svg">
    <path fill-rule="evenodd" clip-rule="evenodd"
          d="M8.37547 9.62094H7.12109C6.77672 9.62094 6.49609 9.90156 6.49609 10.2459C6.49609 10.5909 6.77672 10.8709 7.12109 10.8709H8.37547V12.1253C8.37547 12.4703 8.65547 12.7503 9.00047 12.7503C9.34547 12.7503 9.62547 12.4703 9.62547 12.1253V10.8709H10.8798C11.2242 10.8709 11.5048 10.5909 11.5048 10.2459C11.5048 9.90156 11.2242 9.62094 10.8798 9.62094H9.62547V8.36719C9.62547 8.02219 9.34547 7.74219 9.00047 7.74219C8.65547 7.74219 8.37547 8.02219 8.37547 8.36719V9.62094Z"
          fill="black"/>
    <path fill-rule="evenodd" clip-rule="evenodd"
          d="M5.875 2.75H2.125C1.6275 2.75 1.15062 2.9475 0.799375 3.29938C0.4475 3.65062 0.25 4.1275 0.25 4.625C0.25 6.78937 0.25 11.2106 0.25 13.375C0.25 13.8725 0.4475 14.3494 0.799375 14.7006C1.15062 15.0525 1.6275 15.25 2.125 15.25C5.15063 15.25 12.8419 15.25 15.8675 15.25C16.3644 15.25 16.8412 15.0525 17.1931 14.7006C17.545 14.3494 17.7425 13.8725 17.7425 13.375V4.625C17.7425 4.1275 17.545 3.65062 17.1931 3.29938C16.8412 2.9475 16.3644 2.75 15.8675 2.75H12.125V2.125C12.125 1.08938 11.2856 0.25 10.25 0.25H7.75C6.71438 0.25 5.875 1.08938 5.875 2.125V2.75ZM16.4925 6.5V13.375C16.4925 13.5406 16.4263 13.7 16.3094 13.8169C16.1919 13.9344 16.0331 14 15.8675 14H2.125C1.95938 14 1.8 13.9344 1.68313 13.8169C1.56563 13.7 1.5 13.5406 1.5 13.375V6.5H16.4925ZM16.4925 5.25H1.5V4.625C1.5 4.45937 1.56563 4.3 1.68313 4.18313C1.8 4.06563 1.95938 4 2.125 4H15.8675C16.0331 4 16.1919 4.06563 16.3094 4.18313C16.4263 4.3 16.4925 4.45937 16.4925 4.625V5.25ZM10.875 2.75V2.125C10.875 1.78 10.595 1.5 10.25 1.5H7.75C7.405 1.5 7.125 1.78 7.125 2.125V2.75H10.875Z"
          fill="black"/>
</svg>
