<svg width="18" height="11" viewBox="0 0 18 11" fill="none" xmlns="http://www.w3.org/2000/svg">
    <path d="M13.375 4.375H14.625V5.625H13.375V4.375ZM17.75 5V8.75H16.5C16.5 9.78562 15.6606 10.625 14.625 10.625C13.5894 10.625 12.75 9.78562 12.75 8.75H11.5C11.5 9.78562 10.6606 10.625 9.625 10.625C8.58938 10.625 7.75 9.78562 7.75 8.75H5.25C5.25 9.78562 4.41062 10.625 3.375 10.625C2.33938 10.625 1.5 9.78562 1.5 8.75H0.25V0H12.75V2.5H15.25L17.75 5ZM4 8.75C4 8.40563 3.71937 8.125 3.375 8.125C3.03063 8.125 2.75 8.40563 2.75 8.75C2.75 9.09437 3.03063 9.375 3.375 9.375C3.71937 9.375 4 9.09437 4 8.75ZM10.25 8.75C10.25 8.40563 9.96937 8.125 9.625 8.125C9.28063 8.125 9 8.40563 9 8.75C9 9.09437 9.28063 9.375 9.625 9.375C9.96937 9.375 10.25 9.09437 10.25 8.75ZM11.5 1.25H1.5V7.5H1.98687C2.33 7.11875 2.82188 6.875 3.375 6.875C3.92812 6.875 4.42 7.11875 4.76312 7.5H8.23625C8.57938 7.11875 9.07125 6.875 9.62438 6.875C10.1775 6.875 10.6694 7.11875 11.0125 7.5H11.5V1.25ZM15.25 8.75C15.25 8.40563 14.9694 8.125 14.625 8.125C14.2806 8.125 14 8.40563 14 8.75C14 9.09437 14.2806 9.375 14.625 9.375C14.9694 9.375 15.25 9.09437 15.25 8.75ZM16.5 5.5175L14.7325 3.75H12.75V7.5H13.2369C13.58 7.11875 14.0719 6.875 14.625 6.875C15.1781 6.875 15.67 7.11875 16.0131 7.5H16.5V5.5175Z" fill="#111918"/>
</svg>
